<svg width="42" height="44" viewBox="0 0 42 44" fill="none" xmlns="http://www.w3.org/2000/svg">
<mask id="path-1-inside-1_201_11" fill="white">
<path d="M10 39L13.5 33.5L22.5 32L26 32.5L30.5 36.5L32 40L28.5 42L22.5 43H18L10 40V39Z"/>
<path d="M42 21.7383C42 29.3068 38.2635 35.9719 32.5958 39.8648C29.273 42.1471 25.2865 43.4766 21 43.4766C16.7135 43.4766 12.727 42.1471 9.40418 39.8648C3.73652 35.9719 0 29.3068 0 21.7383C0 9.73256 9.40202 0 21 0C32.598 0 42 9.73256 42 21.7383Z"/>
<path d="M28 16.9076C28 20.9095 24.866 24.1536 21 24.1536C17.134 24.1536 14 20.9095 14 16.9076C14 12.9056 17.134 9.66146 21 9.66146C24.866 9.66146 28 12.9056 28 16.9076Z"/>
<path d="M28 17C28 20.866 24.866 24 21 24C17.134 24 14 20.866 14 17C14 13.134 17.134 10 21 10C24.866 10 28 13.134 28 17Z"/>
</mask>
<path d="M10 39L13.5 33.5L22.5 32L26 32.5L30.5 36.5L32 40L28.5 42L22.5 43H18L10 40V39Z" fill="#FBFBFB"/>
<path d="M28 17C28 20.866 24.866 24 21 24C17.134 24 14 20.866 14 17C14 13.134 17.134 10 21 10C24.866 10 28 13.134 28 17Z" fill="#FBFBFB"/>
<path d="M32.0993 39.9241C32.132 40.1983 32.3808 40.394 32.655 40.3613C32.9292 40.3286 33.125 40.0798 33.0923 39.8056L32.0993 39.9241ZM8.90771 39.8056C8.87499 40.0798 9.07075 40.3286 9.34495 40.3613C9.61915 40.394 9.86795 40.1983 9.90066 39.9241L8.90771 39.8056ZM18.6667 31.8997H23.3333V30.8997H18.6667V31.8997ZM23.3333 31.8997C27.827 31.8997 31.5581 35.3875 32.0993 39.9241L33.0923 39.8056C32.495 34.7994 28.3663 30.8997 23.3333 30.8997V31.8997ZM9.90066 39.9241C10.4419 35.3875 14.173 31.8997 18.6667 31.8997V30.8997C13.6337 30.8997 9.50497 34.7994 8.90771 39.8056L9.90066 39.9241ZM10 39L9.15634 38.4631L9 38.7088V39H10ZM13.5 33.5L13.3356 32.5136L12.8957 32.5869L12.6563 32.9631L13.5 33.5ZM22.5 32L22.6414 31.0101L22.4882 30.9882L22.3356 31.0136L22.5 32ZM26 32.5L26.6644 31.7526L26.4394 31.5526L26.1414 31.5101L26 32.5ZM30.5 36.5L31.4191 36.1061L31.3312 35.9009L31.1644 35.7526L30.5 36.5ZM32 40L32.4961 40.8682L33.2704 40.4258L32.9191 39.6061L32 40ZM28.5 42L28.6644 42.9864L28.8408 42.957L28.9961 42.8682L28.5 42ZM22.5 43V44H22.5828L22.6644 43.9864L22.5 43ZM18 43L17.6489 43.9363L17.8187 44H18V43ZM10 40H9V40.693L9.64888 40.9363L10 40ZM32.5958 39.8648L33.162 40.6891L33.162 40.6891L32.5958 39.8648ZM9.40418 39.8648L8.83801 40.6891L8.83801 40.6891L9.40418 39.8648ZM10.8437 39.5369L14.3437 34.0369L12.6563 32.9631L9.15634 38.4631L10.8437 39.5369ZM13.6644 34.4864L22.6644 32.9864L22.3356 31.0136L13.3356 32.5136L13.6644 34.4864ZM22.3586 32.9899L25.8586 33.4899L26.1414 31.5101L22.6414 31.0101L22.3586 32.9899ZM25.3356 33.2474L29.8356 37.2474L31.1644 35.7526L26.6644 31.7526L25.3356 33.2474ZM29.5809 36.8939L31.0809 40.3939L32.9191 39.6061L31.4191 36.1061L29.5809 36.8939ZM31.5039 39.1318L28.0039 41.1318L28.9961 42.8682L32.4961 40.8682L31.5039 39.1318ZM28.3356 41.0136L22.3356 42.0136L22.6644 43.9864L28.6644 42.9864L28.3356 41.0136ZM22.5 42H18V44H22.5V42ZM18.3511 42.0637L10.3511 39.0637L9.64888 40.9363L17.6489 43.9363L18.3511 42.0637ZM11 40V39H9V40H11ZM1 21.7383C1 10.252 9.98659 1 21 1V-1C8.81745 -1 -1 9.21312 -1 21.7383H1ZM21 1C32.0134 1 41 10.252 41 21.7383H43C43 9.21312 33.1826 -1 21 -1V1ZM27 16.9076C27 20.39 24.2814 23.1536 21 23.1536V25.1536C25.4506 25.1536 29 21.4289 29 16.9076H27ZM21 23.1536C17.7186 23.1536 15 20.39 15 16.9076H13C13 21.4289 16.5494 25.1536 21 25.1536V23.1536ZM15 16.9076C15 13.4251 17.7186 10.6615 21 10.6615V8.66146C16.5494 8.66146 13 12.3862 13 16.9076H15ZM21 10.6615C24.2814 10.6615 27 13.4251 27 16.9076H29C29 12.3862 25.4506 8.66146 21 8.66146V10.6615ZM41 21.7383C41 28.973 37.4294 35.3317 32.0296 39.0405L33.162 40.6891C39.0976 36.6122 43 29.6406 43 21.7383H41ZM32.0296 39.0405C28.8664 41.2133 25.0759 42.4766 21 42.4766V44.4766C25.4971 44.4766 29.6797 43.081 33.162 40.6891L32.0296 39.0405ZM21 42.4766C16.9241 42.4766 13.1336 41.2133 9.97036 39.0405L8.83801 40.6891C12.3203 43.081 16.5029 44.4766 21 44.4766V42.4766ZM9.97036 39.0405C4.57061 35.3317 1 28.973 1 21.7383H-1C-1 29.6406 2.90243 36.6122 8.83801 40.6891L9.97036 39.0405ZM27 17C27 20.3137 24.3137 23 21 23V25C25.4183 25 29 21.4183 29 17H27ZM21 23C17.6863 23 15 20.3137 15 17H13C13 21.4183 16.5817 25 21 25V23ZM15 17C15 13.6863 17.6863 11 21 11V9C16.5817 9 13 12.5817 13 17H15ZM21 11C24.3137 11 27 13.6863 27 17H29C29 12.5817 25.4183 9 21 9V11Z" fill="#FBFBFB" mask="url(#path-1-inside-1_201_11)"/>
</svg>
