<svg width="58" height="60" viewBox="0 0 58 60" fill="none" xmlns="http://www.w3.org/2000/svg">
<path d="M29 34C32.7371 34 35.7667 30.866 35.7667 27C35.7667 23.134 32.7371 20 29 20C25.2629 20 22.2333 23.134 22.2333 27C22.2333 30.866 25.2629 34 29 34Z" fill="white"/>
<path d="M29 5.625C24.3398 5.625 19.7842 7.05457 15.9094 9.73293C12.0346 12.4113 9.01449 16.2181 7.2311 20.6721C5.44771 25.126 4.98109 30.027 5.89026 34.7553C6.79942 39.4836 9.04353 43.8268 12.3388 47.2357C15.6341 50.6446 19.8325 52.9661 24.4032 53.9066C28.9739 54.8472 33.7115 54.3645 38.017 52.5196C42.3225 50.6747 46.0024 47.5505 48.5915 43.542C51.1806 39.5336 52.5625 34.8209 52.5625 30C52.5561 23.5374 50.0716 17.3413 45.6541 12.7716C41.2367 8.20182 35.2472 5.63162 29 5.625ZM42.8958 44.75V43.45C42.8895 42.4707 42.5107 41.5334 41.8413 40.8409C41.1719 40.1485 40.2658 39.7565 39.3192 39.75H18.705C17.7542 39.75 16.8419 40.139 16.1673 40.8322C15.4927 41.5253 15.1106 42.4664 15.1042 43.45V44.75C12.2591 41.8895 10.3038 38.2159 9.48824 34.1993C8.67274 30.1827 9.03418 26.0057 10.5263 22.2028C12.0185 18.3999 14.5735 15.144 17.8644 12.8516C21.1553 10.5593 25.0326 9.3348 29 9.3348C32.9675 9.3348 36.8447 10.5593 40.1356 12.8516C43.4266 15.144 45.9815 18.3999 47.4737 22.2028C48.9658 26.0057 49.3273 30.1827 48.5118 34.1993C47.6963 38.2159 45.7409 41.8895 42.8958 44.75Z" fill="white"/>
</svg>
