<svg width="24" height="24" viewBox="0 0 24 24" fill="none" xmlns="http://www.w3.org/2000/svg">
<path d="M6 19.5799V6.41992C6 5.62427 6.31607 4.86121 6.87868 4.2986C7.44129 3.73599 8.20435 3.41992 9 3.41992H15C15.7956 3.41992 16.5587 3.73599 17.1213 4.2986C17.6839 4.86121 18 5.62427 18 6.41992V19.5799C18.0009 19.7609 17.9526 19.9386 17.8605 20.0943C17.7683 20.25 17.6356 20.3778 17.4765 20.464C17.3174 20.5502 17.1379 20.5916 16.9572 20.5838C16.7764 20.5761 16.6011 20.5194 16.45 20.4199L12 17.4199L7.55 20.4199C7.39889 20.5194 7.22362 20.5761 7.04285 20.5838C6.86208 20.5916 6.6826 20.5502 6.52352 20.464C6.36445 20.3778 6.23174 20.25 6.13955 20.0943C6.04735 19.9386 5.99912 19.7609 6 19.5799Z" fill="#000D26"/>
</svg>
