<svg width="44" height="44" viewBox="0 0 44 44" fill="none" xmlns="http://www.w3.org/2000/svg">
<path d="M33.5958 39.5109C33.0266 34.9016 29.0967 31.3333 24.3333 31.3333H19.6667C14.9033 31.3333 10.9734 34.9016 10.4042 39.5109M33.5958 39.5109C39.2635 35.7503 43 29.3115 43 22C43 10.402 33.598 1 22 1C10.402 1 1 10.402 1 22C1 29.3115 4.73652 35.7503 10.4042 39.5109M33.5958 39.5109C30.273 41.7157 26.2865 43 22 43C17.7135 43 13.727 41.7157 10.4042 39.5109M29 17.3333C29 21.1993 25.866 24.3333 22 24.3333C18.134 24.3333 15 21.1993 15 17.3333C15 13.4673 18.134 10.3333 22 10.3333C25.866 10.3333 29 13.4673 29 17.3333Z" stroke="#FBFBFB" stroke-width="2" stroke-linecap="round" stroke-linejoin="round"/>
</svg>
